name Walk1.mot
datacolumns 19
datarows 12
range 3.57500000 3.63000000
endheader

                time	   L_ground_force_vx	   L_ground_force_vy	   L_ground_force_vz	   L_ground_force_px	   L_ground_force_py	   L_ground_force_pz	   R_ground_force_vx	   R_ground_force_vy	   R_ground_force_vz	   R_ground_force_px	   R_ground_force_py	   R_ground_force_pz	   L_ground_torque_x	   L_ground_torque_y	   L_ground_torque_z	   R_ground_torque_x	   R_ground_torque_y	   R_ground_torque_z	
          3.57500000	         47.22165330	        654.80444420	         38.75721869	         -0.26815269	          0.00000000	         -0.04967986	         -0.01202917	          0.21458352	          0.01355987	          0.00024583	          0.00000000	          0.00006526	          0.00000000	          0.30984783	          0.00000000	          0.00000000	          0.00073803	          0.00000000	
          3.58000000	         49.05411465	        661.99507814	         39.36587696	         -0.26627773	          0.00000000	         -0.05000989	         -0.01665681	          0.27434270	          0.01775490	          0.00028694	          0.00000000	          0.00007630	          0.00000000	          0.36146677	          0.00000000	          0.00000000	          0.00115186	          0.00000000	
          3.58500000	         50.88354037	        669.42641563	         40.03117066	         -0.26429001	          0.00000000	         -0.05037246	         -0.02181881	          0.33369578	          0.02210686	          0.00031566	          0.00000000	          0.00008410	          0.00000000	          0.42407294	          0.00000000	          0.00000000	          0.00165512	          0.00000000	
          3.59000000	         52.69294833	        677.00360813	         40.75621890	         -0.26218289	          0.00000000	         -0.05076636	         -0.02717746	          0.38509571	          0.02616683	          0.00032152	          0.00000000	          0.00008588	          0.00000000	          0.49874967	          0.00000000	          0.00000000	          0.00223576	          0.00000000	
          3.59500000	         54.46330548	        684.62586706	         41.53951320	         -0.25995055	          0.00000000	         -0.05118987	         -0.03218187	          0.41775461	          0.02927075	          0.00029101	          0.00000000	          0.00007808	          0.00000000	          0.58592844	          0.00000000	          0.00000000	          0.00286548	          0.00000000	
          3.60000000	         56.17433088	        692.18878418	         42.37488061	         -0.25758805	          0.00000000	         -0.05164235	         -0.03601673	          0.41716136	          0.03050104	          0.00020753	          0.00000000	          0.00005628	          0.00000000	          0.68553381	          0.00000000	          0.00000000	          0.00349406	          0.00000000	
          3.60500000	         57.80566911	        699.58592004	         43.25241581	         -0.25509136	          0.00000000	         -0.05212384	         -0.03755485	          0.36478855	          0.02865790	          0.00005177	          0.00000000	          0.00001535	          0.00000000	          0.79701511	          0.00000000	          0.00000000	          0.00404333	          0.00000000	
          3.61000000	         59.33873504	        706.71098690	         44.15858106	         -0.25245888	          0.00000000	         -0.05263451	         -0.03532181	          0.23813077	          0.02224941	         -0.00019751	          0.00000000	         -0.00005038	          0.00000000	          0.91946182	          0.00000000	          0.00000000	          0.00440120	          0.00000000	
          3.61500000	         60.75837760	        713.46045420	         45.07675936	         -0.24969182	          0.00000000	         -0.05317300	         -0.02748347	          0.01125500	          0.00951217	         -0.00056187	          0.00000000	         -0.00014665	          0.00000000	          1.05145314	          0.00000000	          0.00000000	          0.00441646	          0.00000000	
          3.62000000	         62.05459757	        719.73829044	         45.98871204	         -0.24679482	          0.00000000	         -0.05373680	         -0.01187103	         -0.34391853	         -0.01152315	         -0.00106075	          0.00000000	         -0.00027870	          0.00000000	          1.19122127	          0.00000000	          0.00000000	          0.00389559	          0.00000000	
          3.62500000	         63.22467088	        725.45922920	         46.87582211	         -0.24377667	          0.00000000	         -0.05432357	          0.01393871	         -0.85535412	         -0.04290406	         -0.00170787	          0.00000000	         -0.00045024	          0.00000000	          1.33707456	          0.00000000	          0.00000000	          0.00260291	          0.00000000	
          3.63000000	         64.27396362	        730.55439519	         47.71986825	         -0.24064998	          0.00000000	         -0.05493085	          0.05246686	         -1.54738722	         -0.08654755	         -0.00250636	          0.00000000	         -0.00066220	          0.00000000	          1.48718642	          0.00000000	          0.00000000	          0.00026612	          0.00000000	
